<svg width="40" height="40" viewBox="0 0 96 96" fill="none" xmlns="http://www.w3.org/2000/svg">
<rect x="0.5" y="0.5" width="95" height="95" rx="17.5" fill="#FFD600" fill-opacity="0.18" stroke="#FFD600"/>
<path d="M59.7403 63.3813L49.4965 53.1375C49.1222 52.7631 48.6797 52.6951 48.4415 52.6951C48.2033 52.6951 47.7608 52.7631 47.3865 53.1375L37.1086 63.4153C35.9515 64.5725 34.1478 66.4442 28.124 66.4442L40.7501 79.0363C44.7319 83.0181 51.1981 83.0181 55.18 79.0363L67.8401 66.4102C64.7431 66.4102 62.1566 65.7976 59.7403 63.3813Z" fill="#FFD600"/>
<path d="M37.1081 32.5819L47.386 42.8598C47.6582 43.1321 48.0666 43.3022 48.441 43.3022C48.8153 43.3022 49.2237 43.1321 49.496 42.8598L59.6717 32.684C62.088 30.1656 64.8447 29.5871 67.9417 29.5871L55.2815 16.961C51.2997 12.9792 44.8335 12.9792 40.8517 16.961L28.2256 29.553C34.2153 29.553 36.0531 31.5269 37.1081 32.5819Z" fill="#FFD600"/>
<path d="M79.0024 40.6816L71.3451 32.9902H67.057C65.2192 32.9902 63.3815 33.7389 62.1223 35.0662L51.9125 45.276C50.9596 46.2289 49.7003 46.7053 48.4411 46.7053C47.216 46.7053 45.9227 46.1948 44.9698 45.276L34.692 34.9641C33.3987 33.6708 31.629 32.9221 29.7572 32.9221H24.7544L16.961 40.7496C12.9792 44.7314 12.9792 51.1976 16.961 55.1795L24.7544 63.007H29.7913C31.629 63.007 33.3987 62.2582 34.726 60.965L45.0038 50.6871C45.9568 49.7342 47.216 49.2578 48.4752 49.2578C49.7344 49.2578 50.9936 49.7342 51.9465 50.6871L62.1903 60.931C63.4836 62.2242 65.2533 62.9729 67.1251 62.9729H71.4132L79.0705 55.2816C83.0523 51.2657 83.0523 44.7314 79.0024 40.6816Z" fill="#FFD600"/>
</svg>
