<svg width="40" height="40" viewBox="0 0 172 172" fill="none" xmlns="http://www.w3.org/2000/svg">
<circle cx="86" cy="86" r="85" fill="#745A00" stroke="#FFC700" stroke-width="2"/>
<path d="M116.565 82.7082C120.175 76.556 121.734 69.4148 121.017 62.3178C119.956 51.7433 114.052 42.3957 104.402 36L97.8522 45.8751C104.485 50.2733 108.522 56.5386 109.221 63.5033C109.544 66.7403 109.141 70.0084 108.041 73.0701C106.942 76.1318 105.174 78.91 102.867 81.2026L95.8013 88.2681L105.392 91.0837C130.477 98.4337 130.767 123.661 130.767 123.916H142.622C142.622 113.312 136.955 92.5893 116.565 82.7082Z" fill="#F9C200"/>
<path d="M74.4558 88.3511C87.5317 88.3511 98.1655 77.7173 98.1655 64.6414C98.1655 51.5655 87.5317 40.9316 74.4558 40.9316C61.3799 40.9316 50.746 51.5655 50.746 64.6414C50.746 77.7173 61.3799 88.3511 74.4558 88.3511ZM74.4558 52.7865C80.9938 52.7865 86.3107 58.1034 86.3107 64.6414C86.3107 71.1794 80.9938 76.4963 74.4558 76.4963C67.9178 76.4963 62.6009 71.1794 62.6009 64.6414C62.6009 58.1034 67.9178 52.7865 74.4558 52.7865ZM83.3469 94.2786H65.5646C45.9507 94.2786 30 110.229 30 129.843V135.771H41.8549V129.843C41.8549 116.767 52.4887 106.133 65.5646 106.133H83.3469C96.4229 106.133 107.057 116.767 107.057 129.843V135.771H118.912V129.843C118.912 110.229 102.961 94.2786 83.3469 94.2786Z" fill="#F9C200"/>
</svg>
