<svg width="31" height="33" viewBox="0 0 67 68" fill="none" xmlns="http://www.w3.org/2000/svg">
    <path d="M58.1842 3.4C55.8467 3.40181 53.6054 4.29792 51.9526 5.89159C50.2997 7.48525 49.3703 9.64622 49.3684 11.9C49.3684 13.1138 49.6435 14.2664 50.1231 15.317L43.2291 22.7936C40.8872 21.235 38.1088 20.4001 35.2632 20.4C32.6537 20.4 30.2417 21.1344 28.1435 22.3244L20.1247 14.5962L20.0436 14.6744C20.7347 13.3212 21.1579 11.815 21.1579 10.2C21.1579 8.18263 20.5375 6.21057 19.375 4.53319C18.2126 2.85581 16.5604 1.54845 14.6273 0.776433C12.6943 0.00441952 10.5672 -0.197575 8.5151 0.195995C6.46299 0.589564 4.578 1.56102 3.09851 2.98752C1.61901 4.41401 0.611467 6.23148 0.203276 8.21008C-0.204915 10.1887 0.00458371 12.2396 0.805279 14.1034C1.60597 15.9672 2.9619 17.5602 4.7016 18.681C6.4413 19.8018 8.48663 20.4 10.579 20.4C12.254 20.4 13.8126 19.992 15.2196 19.3256L15.1385 19.4038L23.1573 27.132C21.8619 29.2061 21.1711 31.5789 21.1579 34C21.1579 37.3898 22.4979 40.4566 24.6313 42.8434L15.544 51.6018C14.5255 51.2087 13.4392 51.0045 12.3421 51C7.48285 51 3.52632 54.8114 3.52632 59.5C3.52632 64.1886 7.48285 68 12.3421 68C17.2014 68 21.1579 64.1886 21.1579 59.5C21.1579 58.4086 20.9252 57.3716 20.5337 56.4094L30.5414 46.7602C32.026 47.2702 33.5987 47.6 35.2632 47.6C43.0422 47.6 49.3684 41.5004 49.3684 34C49.3684 31.8376 48.7936 29.8214 47.8592 28.0024L55.3244 19.9002C56.2271 20.1994 57.1792 20.4 58.1842 20.4C63.047 20.4 67 16.5886 67 11.9C67 7.2114 63.047 3.4 58.1842 3.4ZM35.2632 40.8C31.3736 40.8 28.2105 37.7502 28.2105 34C28.2105 30.2498 31.3736 27.2 35.2632 27.2C39.1527 27.2 42.3158 30.2498 42.3158 34C42.3158 37.7502 39.1527 40.8 35.2632 40.8Z" fill="#9DA9BF"/>
</svg>
