<svg width="35" height="35" viewBox="0 0 94 71" fill="none" xmlns="http://www.w3.org/2000/svg">
<path d="M51.4313 35.3037L2 17.3287V15.4887L42.1994 2.08886L91.6477 15.5747V17.4298L51.4313 35.3037Z" stroke="#9DA9BF" stroke-width="4"/>
<path d="M30.0948 41.7933L50.8741 48.7211L51.5935 48.9609L52.291 48.6636L82.4566 35.8034V52.7517C82.4566 52.9759 82.4249 53.2151 82.3541 53.4793C81.5862 56.241 78.606 59.794 73.2221 62.778C67.9148 65.7196 60.5209 67.9554 51.4437 68.2414L51.4431 68.2414C40.0428 68.604 29.8172 66.1899 22.497 62.8082C18.8317 61.115 15.9653 59.2118 14.0488 57.3576C12.0805 55.4532 11.3652 53.854 11.3652 52.7563V35.5515L21.4124 38.9005V52.3583V53.7587L22.7283 54.2377L27.4107 55.9421L30.0948 56.9191V54.0627V41.7933Z" stroke="#9DA9BF" stroke-width="4"/>
</svg>
