<svg width="60" height="60" viewBox="0 0 158 158" fill="none" xmlns="http://www.w3.org/2000/svg">
<rect x="0.5" y="0.5" width="157" height="157" rx="17.5" fill="#FFD600" fill-opacity="0.18" stroke="#FFD600"/>
<path d="M98.3233 104.315L81.4636 87.4557C80.8475 86.8396 80.1193 86.7275 79.7273 86.7275C79.3352 86.7275 78.607 86.8396 77.9909 87.4557L61.0753 104.371C59.1709 106.276 56.2022 109.356 46.2881 109.356L67.0685 130.081C73.622 136.634 84.2642 136.634 90.8176 130.081L111.654 109.3C106.557 109.3 102.3 108.292 98.3233 104.315Z" fill="#FFD600"/>
<path d="M61.0742 53.6246L77.9898 70.5402C78.4379 70.9883 79.1101 71.2684 79.7262 71.2684C80.3424 71.2684 81.0145 70.9883 81.4626 70.5402L98.2102 53.7926C102.187 49.6477 106.724 48.6955 111.821 48.6955L90.9846 27.9151C84.4312 21.3616 73.7889 21.3616 67.2355 27.9151L46.4551 48.6395C56.3132 48.6395 59.3378 51.8882 61.0742 53.6246Z" fill="#FFD600"/>
<path d="M130.025 66.9553L117.422 54.2966H110.365C107.34 54.2966 104.315 55.5289 102.243 57.7133L85.4394 74.5169C83.8711 76.0853 81.7986 76.8694 79.7262 76.8694C77.7097 76.8694 75.5813 76.0293 74.0129 74.5169L57.0973 57.5453C54.9689 55.4168 52.0562 54.1846 48.9756 54.1846H40.7418L27.9151 67.0673C21.3616 73.6207 21.3616 84.263 27.9151 90.8164L40.7418 103.699H49.0316C52.0562 103.699 54.9689 102.467 57.1533 100.338L74.069 83.4228C75.6373 81.8545 77.7097 81.0703 79.7822 81.0703C81.8546 81.0703 83.9271 81.8545 85.4954 83.4228L102.355 100.282C104.483 102.411 107.396 103.643 110.477 103.643H117.534L130.137 90.9845C136.69 84.3751 136.69 73.6207 130.025 66.9553Z" fill="#FFD600"/>
</svg>
