<svg width="31" height="31" viewBox="0 0 68 68" fill="none" xmlns="http://www.w3.org/2000/svg">
<path d="M23.7998 23.8H44.1998V44.2H23.7998V23.8Z" fill="#9DA9BF"/>
<path d="M61.2 13.6C61.2 9.8498 58.1502 6.8 54.4 6.8H47.6V0H40.8V6.8H27.2V0H20.4V6.8H13.6C9.8498 6.8 6.8 9.8498 6.8 13.6V20.4H0V27.2H6.8V40.8H0V47.6H6.8V54.4C6.8 58.1502 9.8498 61.2 13.6 61.2H20.4V68H27.2V61.2H40.8V68H47.6V61.2H54.4C58.1502 61.2 61.2 58.1502 61.2 54.4V47.6H68V40.8H61.2V27.2H68V20.4H61.2V13.6ZM13.6 54.4V13.6H54.4L54.4068 54.4H13.6Z" fill="#9DA9BF"/>
</svg>
