<svg width="60" height="60" viewBox="0 0 158 158" fill="none" xmlns="http://www.w3.org/2000/svg">
<path fill-rule="evenodd" clip-rule="evenodd" d="M115.847 41.1156C111.05 36.3099 105.342 32.4994 99.055 29.9047C92.7676 27.3101 86.0255 25.9829 79.2191 26.0002C50.6783 26.0002 27.4441 49.1183 27.4326 77.5351C27.4326 86.617 29.8149 95.4807 34.3429 103.3L27 130L54.4506 122.83C62.0438 126.944 70.5507 129.101 79.196 129.104H79.2191C107.754 129.104 130.988 105.986 131 77.5695C131.019 70.7982 129.69 64.0901 127.089 57.8331C124.489 51.576 120.667 45.8941 115.847 41.1156ZM79.2191 120.407H79.2018C71.4927 120.408 63.9256 118.344 57.2943 114.431L55.7254 113.501L39.4361 117.755L43.7796 101.951L42.7586 100.332C38.4486 93.5026 36.1669 85.5996 36.1771 77.5351C36.1887 53.9175 55.4947 34.7032 79.2364 34.7032C84.8906 34.6907 90.4912 35.7944 95.714 37.9505C100.937 40.1065 105.678 43.2721 109.663 47.264C113.67 51.2368 116.846 55.9607 119.007 61.1624C121.168 66.3641 122.272 71.9406 122.255 77.5695C122.244 101.187 102.938 120.407 79.2191 120.407ZM102.828 88.322C101.53 87.6733 95.1738 84.5618 93.9855 84.1312C92.8031 83.7007 91.9436 83.4883 91.0784 84.7742C90.2132 86.0601 87.7329 88.9592 86.9772 89.8203C86.2216 90.6814 85.466 90.7848 84.1739 90.1418C82.8819 89.4989 78.7115 88.1383 73.7682 83.7523C69.9208 80.3366 67.3251 76.1228 66.5695 74.8312C65.8139 73.5395 66.4888 72.8449 67.1406 72.2019C67.7232 71.6278 68.4326 70.6978 69.0787 69.9458C69.7247 69.1937 69.9381 68.6598 70.3707 67.7987C70.8033 66.9376 70.5899 66.1856 70.2611 65.5426C69.9381 64.8939 67.3482 58.5561 66.2696 55.9785C65.2255 53.4812 64.1584 53.8142 63.3624 53.7798C62.538 53.7462 61.713 53.7309 60.8879 53.7338C60.2318 53.7505 59.5862 53.9018 58.9917 54.1784C58.3971 54.4551 57.8664 54.8509 57.4328 55.3413C56.2445 56.6329 52.9048 59.7444 52.9048 66.0822C52.9048 72.4201 57.5424 78.5455 58.1884 79.4066C58.8344 80.2677 67.3136 93.2705 80.292 98.8506C83.3837 100.177 85.7948 100.969 87.6694 101.566C90.7669 102.548 93.5875 102.404 95.8198 102.077C98.3059 101.709 103.474 98.9654 104.553 95.9572C105.631 92.9491 105.631 90.3715 105.308 89.8318C104.985 89.2922 104.114 88.965 102.828 88.322Z" fill="#61FF00"/>
<rect x="0.5" y="0.5" width="157" height="157" rx="17.5" fill="#61FF00" fill-opacity="0.18" stroke="#61FF00"/>
</svg>
