<svg width="40" height="40" viewBox="0 0 96 96" fill="none" xmlns="http://www.w3.org/2000/svg">
<rect x="0.5" y="0.5" width="95" height="95" rx="17.5" fill="#168BCD" fill-opacity="0.08" stroke="#17BAFF"/>
<path d="M65.6904 71C59.9775 71 54.4919 70.0083 49.2335 68.025C43.975 66.0417 39.3225 63.2907 35.2759 59.7719C31.2293 56.2531 28.005 52.0946 25.603 47.2962C23.201 42.4979 22 37.2837 22 31.6537C22 29.777 22.5302 28.1989 23.5905 26.9193C24.6509 25.6398 26.1548 25 28.1024 25H34.1398C35.3084 25 36.2172 25.3306 36.8664 25.9917C37.5156 26.6528 37.97 27.6018 38.2297 28.8387C38.4894 30.1182 38.7815 31.4404 39.1061 32.8053C39.4307 34.1701 39.8094 35.3857 40.2422 36.452C40.6317 37.3477 40.7507 38.1901 40.5993 38.9791C40.4478 39.7682 40.0042 40.5253 39.2684 41.2503L34.2047 46.1127C36.2821 49.0983 39.171 51.9879 42.8714 54.7816C46.5718 57.5753 50.1748 59.484 53.6804 60.5077L56.6667 54.5577C57.0562 53.79 57.5539 53.2675 58.1598 52.9903C58.7657 52.713 59.6097 52.6171 60.6916 52.7024C61.8169 52.7877 62.9313 52.8303 64.035 52.8303C65.1386 52.8303 66.3829 52.7877 67.7678 52.7024C69.0662 52.6171 70.159 52.9583 71.0462 53.726C71.9334 54.4937 72.5285 55.7306 72.8315 57.4367L73.8702 63.1947C73.8702 63.1947 73.9134 63.5573 74 64.2823C74 66.0737 73.2534 67.6412 71.7603 68.9847C70.2672 70.3282 68.2439 71 65.6904 71Z" fill="#00C2FF"/>
</svg>
