<svg width="40" height="40" viewBox="0 0 96 96" fill="none" xmlns="http://www.w3.org/2000/svg">
<rect x="0.5" y="0.5" width="95" height="95" rx="17.5" fill="#61FF00" fill-opacity="0.18" stroke="#61FF00"/>
<path fill-rule="evenodd" clip-rule="evenodd" d="M70.3882 24.9815C67.4735 22.0616 64.0056 19.7464 60.1855 18.1699C56.3653 16.5934 52.2688 15.787 48.1333 15.7975C30.7921 15.7975 16.6751 29.8439 16.6681 47.1098C16.6681 52.6279 18.1156 58.0135 20.8668 62.7643L16.4053 78.9872L33.0841 74.6306C37.6977 77.1302 42.8665 78.4408 48.1193 78.4431H48.1333C65.4711 78.4431 79.588 64.3967 79.595 47.1307C79.6069 43.0165 78.7994 38.9407 77.2191 35.139C75.6388 31.3372 73.3171 27.8849 70.3882 24.9815ZM48.1333 73.1587H48.1228C43.4388 73.1592 38.8411 71.9049 34.812 69.5276L33.8587 68.9625L23.9614 71.5472L26.6004 61.9446L25.9801 60.9609C23.3614 56.8116 21.9751 52.0098 21.9813 47.1098C21.9883 32.7599 33.7185 21.0854 48.1438 21.0854C51.5793 21.0778 54.9822 21.7484 58.1555 23.0584C61.3289 24.3684 64.2097 26.2918 66.6311 28.7173C69.0656 31.1311 70.9952 34.0013 72.3084 37.1619C73.6216 40.3224 74.2923 43.7106 74.2819 47.1307C74.2749 61.4806 62.5447 73.1587 48.1333 73.1587ZM62.4781 53.6639C61.6895 53.2697 57.8273 51.3792 57.1054 51.1176C56.3869 50.856 55.8647 50.7269 55.339 51.5083C54.8133 52.2896 53.3063 54.0511 52.8471 54.5743C52.388 55.0975 51.9289 55.1603 51.1439 54.7696C50.3588 54.3789 47.8249 53.5523 44.8214 50.8874C42.4837 48.812 40.9066 46.2518 40.4475 45.4669C39.9884 44.6821 40.3984 44.2601 40.7945 43.8694C41.1485 43.5206 41.5795 42.9555 41.9721 42.4986C42.3646 42.0417 42.4943 41.7173 42.7571 41.1941C43.02 40.6709 42.8903 40.2139 42.6905 39.8232C42.4943 39.4291 40.9207 35.5783 40.2653 34.0121C39.6309 32.4948 38.9826 32.6971 38.4989 32.6762C37.998 32.6558 37.4967 32.6465 36.9954 32.6483C36.5967 32.6584 36.2045 32.7504 35.8433 32.9184C35.482 33.0865 35.1595 33.327 34.8961 33.625C34.1741 34.4098 32.1449 36.3003 32.1449 40.1511C32.1449 44.002 34.9627 47.7237 35.3552 48.2469C35.7477 48.7701 40.8996 56.6706 48.7852 60.061C50.6637 60.8667 52.1287 61.3481 53.2677 61.7109C55.1497 62.3073 56.8635 62.2201 58.2198 62.0213C59.7304 61.7981 62.8706 60.1308 63.526 58.303C64.1813 56.4753 64.1813 54.9091 63.9851 54.5813C63.7888 54.2534 63.2596 54.0546 62.4781 53.6639Z" fill="#61FF00"/>
</svg>
